<?xml version="1.0" standalone="no"?>
<!DOCTYPE svg PUBLIC "-//W3C//DTD SVG 20010904//EN"
 "http://www.w3.org/TR/2001/REC-SVG-20010904/DTD/svg10.dtd">
<svg version="1.0" xmlns="http://www.w3.org/2000/svg"
 width="638.000000pt" height="638.000000pt" viewBox="0 0 638.000000 638.000000"
 preserveAspectRatio="xMidYMid meet">

<g transform="translate(0.000000,638.000000) scale(0.100000,-0.100000)"
fill="#000000" stroke="none">
<path d="M1725 5394 c-52 -27 -93 -63 -138 -122 -91 -117 -235 -396 -347 -670
-35 -84 -65 -151 -67 -149 -2 3 19 98 46 213 27 115 59 260 71 323 36 193 27
342 -21 354 -41 11 -44 2 -45 -126 -1 -98 -8 -157 -38 -302 -52 -257 -173
-745 -237 -954 -26 -89 -25 -127 5 -146 20 -13 28 -14 45 -4 18 12 111 186
111 209 0 5 32 91 70 191 259 672 444 1028 576 1109 40 26 40 26 47 -10 14
-69 -32 -343 -104 -615 -73 -278 -74 -285 -63 -303 14 -22 51 -27 70 -11 9 7
27 35 41 62 31 62 187 308 236 371 78 102 205 226 232 226 20 0 8 -70 -55
-330 -69 -280 -84 -365 -78 -456 7 -124 59 -187 147 -182 25 2 46 8 48 15 7
20 -35 53 -67 53 -25 0 -30 5 -39 38 -23 80 -3 216 79 532 70 275 75 346 28
390 -43 40 -125 16 -210 -59 -39 -35 -132 -151 -246 -309 -13 -18 -25 -32 -27
-30 -2 2 13 71 32 153 61 268 77 422 49 489 -26 63 -88 83 -151 50z"/>
<path d="M3043 5198 c-28 -36 -197 -492 -220 -592 -24 -105 -28 -113 -69 -153
-80 -76 -210 -133 -303 -133 -57 0 -77 15 -87 65 -8 47 -1 53 51 47 80 -9 165
37 226 122 89 122 -55 213 -197 125 -43 -26 -108 -98 -133 -147 -75 -147 -2
-282 152 -282 101 0 202 41 284 114 28 25 53 46 56 46 3 0 7 -10 11 -23 3 -12
21 -38 41 -57 30 -29 42 -34 82 -34 63 1 116 29 196 104 l64 59 21 -28 c30
-40 85 -64 130 -56 75 14 173 85 253 184 33 40 36 42 42 22 4 -16 -5 -28 -44
-57 -101 -74 -179 -189 -179 -264 0 -48 28 -100 70 -128 29 -20 44 -23 88 -19
114 12 193 90 200 200 3 54 -13 156 -33 209 -5 11 6 24 37 46 39 27 239 132
251 132 3 0 12 -18 21 -41 l17 -41 -28 -20 c-16 -12 -58 -51 -94 -88 -99 -102
-126 -173 -94 -256 22 -59 62 -84 133 -84 62 0 110 20 154 64 63 63 75 149 39
286 -10 41 -16 78 -13 82 11 10 226 128 235 128 4 0 7 -22 7 -49 0 -124 105
-179 212 -112 25 16 68 56 96 90 l50 60 7 -40 c8 -47 37 -81 84 -97 64 -22
145 14 247 111 67 63 154 179 154 205 0 32 -29 12 -127 -86 -107 -108 -178
-156 -243 -164 -42 -5 -39 57 10 203 43 128 45 160 10 179 -25 14 -51 1 -80
-41 -22 -29 -23 -30 -42 -12 -15 13 -35 18 -77 17 -48 -1 -67 -7 -113 -36 -30
-20 -76 -61 -103 -91 -33 -38 -61 -60 -94 -72 -25 -10 -94 -42 -152 -71 -58
-30 -108 -54 -111 -54 -14 0 -25 56 -14 73 9 14 7 21 -6 31 -21 15 -24 81 -7
120 14 30 72 60 99 51 14 -4 20 -15 20 -35 0 -48 71 -83 85 -41 7 24 -15 80
-41 103 -34 30 -92 49 -129 42 -45 -8 -111 -66 -125 -110 -7 -20 -10 -61 -8
-92 l5 -55 -61 -26 c-34 -14 -102 -47 -153 -73 l-92 -48 -11 42 c-7 24 -16 60
-22 80 -23 78 30 162 96 156 25 -2 32 -8 34 -30 4 -31 46 -70 68 -61 24 9 17
66 -13 106 -63 82 -179 75 -246 -15 -26 -35 -33 -120 -17 -189 l13 -53 -74
-69 c-76 -70 -201 -142 -235 -135 -39 7 -24 122 33 266 24 61 24 64 7 83 -19
22 -44 25 -62 7 -6 -6 -28 -66 -49 -132 -36 -113 -41 -124 -93 -177 -68 -68
-132 -107 -193 -115 -44 -6 -47 -5 -58 22 -26 69 24 259 152 579 l81 199 -22
18 c-26 21 -44 23 -57 6z m1707 -303 c0 -90 -166 -293 -232 -283 -19 2 -24 10
-26 40 -6 74 86 206 178 254 65 34 80 32 80 -11z m-2165 -264 c0 -41 -92 -119
-151 -128 -48 -8 -44 13 14 69 64 64 137 95 137 59z m1533 -233 c-3 -65 -7
-81 -28 -104 -30 -32 -78 -54 -120 -54 -87 0 -39 157 81 265 l43 39 14 -34 c9
-23 13 -61 10 -112z m-419 -43 c1 -82 -18 -123 -70 -147 -59 -27 -95 -31 -114
-12 -37 37 6 143 97 237 l60 62 13 -35 c8 -19 14 -66 14 -105z"/>
<path d="M3325 4940 c-21 -40 -19 -57 9 -75 31 -20 53 -11 66 30 22 67 -43
107 -75 45z"/>
<path d="M2960 4083 c-60 -6 -193 -44 -245 -70 -208 -105 -364 -302 -410 -521
-19 -86 -19 -228 -1 -313 76 -357 414 -616 777 -596 105 5 219 33 219 52 0 7
-7 29 -15 48 l-15 36 -42 -15 c-69 -25 -241 -30 -332 -9 -337 74 -561 410
-501 749 43 246 201 429 440 512 71 25 94 28 205 28 111 0 134 -3 205 -28 226
-78 371 -236 436 -476 18 -65 16 -233 -5 -309 -9 -36 -13 -68 -9 -71 12 -10
76 -31 80 -26 3 2 13 37 24 78 25 99 26 267 0 363 -98 367 -440 607 -811 568z"/>
<path d="M2981 3941 c-8 -5 -10 -14 -6 -21 6 -9 10 -8 17 4 12 21 7 28 -11 17z"/>
<path d="M3046 3935 c4 -8 10 -15 14 -15 4 0 10 7 14 15 4 10 -1 15 -14 15
-13 0 -18 -5 -14 -15z"/>
<path d="M2908 3933 c-10 -2 -15 -10 -11 -19 7 -20 20 -17 26 6 3 11 4 19 4
19 -1 -1 -10 -3 -19 -6z"/>
<path d="M3120 3931 c0 -18 18 -21 30 -6 10 13 9 15 -9 15 -11 0 -21 -4 -21
-9z"/>
<path d="M3006 3902 l-17 -32 -23 27 -24 27 -7 -32 c-8 -39 -19 -40 -42 -6
l-17 26 -10 -37 -11 -37 -27 22 -28 21 0 -30 c0 -35 -14 -39 -48 -15 -23 16
-23 16 -16 -22 6 -34 5 -37 -12 -29 -50 20 -54 19 -48 -14 7 -34 1 -37 -40
-21 -24 9 -25 8 -16 -16 16 -41 13 -47 -21 -40 -27 5 -30 4 -24 -12 21 -51 20
-54 -20 -46 l-38 7 21 -31 c12 -16 22 -33 22 -36 0 -3 -17 -6 -37 -6 l-36 0
21 -23 c29 -31 28 -34 -14 -41 l-35 -7 25 -20 c34 -27 33 -35 -6 -43 l-33 -7
29 -24 29 -23 -33 -17 -34 -17 33 -18 33 -17 -32 -20 -33 -21 38 -12 37 -12
-28 -23 c-31 -25 -32 -23 22 -40 15 -5 14 -8 -5 -28 -28 -31 -27 -37 9 -37 35
0 36 -2 14 -35 -16 -25 -16 -25 15 -25 35 0 38 -10 14 -46 l-16 -26 36 7 c40
8 46 0 26 -37 -11 -20 -9 -21 25 -15 20 3 36 5 36 4 0 -1 -4 -17 -10 -35 -8
-30 -7 -33 8 -27 51 21 55 20 49 -14 -6 -29 -5 -32 11 -26 47 20 52 18 52 -15
0 -32 0 -32 25 -16 33 22 35 21 35 -14 0 -36 6 -37 37 -8 l23 21 12 -33 11
-33 22 27 23 28 12 -37 12 -37 20 33 20 33 18 -34 18 -35 13 30 c7 17 15 32
16 35 2 2 14 -9 27 -25 l23 -29 8 32 c8 38 18 40 42 8 l18 -24 12 40 c15 51 2
94 -25 83 -78 -33 -232 -31 -322 4 -123 47 -233 157 -281 278 -17 44 -24 84
-27 163 -3 93 -1 113 21 171 49 130 127 218 242 275 337 167 722 -92 698 -468
-2 -29 -8 -68 -14 -86 -6 -18 -8 -39 -5 -47 6 -16 51 -19 95 -6 l24 7 -26 17
c-35 23 -34 34 5 42 l32 7 -28 25 c-16 13 -27 25 -25 26 2 2 18 9 34 16 l30
13 -35 18 -34 18 32 19 33 20 -31 13 c-35 15 -37 21 -10 38 27 17 25 32 -4 32
-34 0 -40 14 -16 35 28 25 25 35 -10 35 -35 0 -36 2 -14 35 16 25 16 25 -15
25 -35 0 -38 10 -14 46 l16 26 -37 -8 c-41 -7 -41 -6 -19 53 4 9 -3 10 -28 3
-18 -5 -34 -8 -36 -7 -1 2 2 18 7 36 9 34 8 34 -49 13 -11 -4 -12 3 -7 33 l8
38 -26 -16 c-33 -22 -48 -21 -45 1 4 41 0 45 -26 28 -33 -22 -35 -21 -35 21
l0 37 -30 -29 -30 -29 -6 32 c-8 39 -16 40 -40 5 l-17 -28 -16 38 -16 38 -19
-32 -19 -32 -17 33 -17 34 -17 -32z"/>
<path d="M3194 3914 c3 -9 6 -18 6 -21 0 -3 7 0 15 7 13 11 13 15 3 21 -21 13
-31 10 -24 -7z"/>
<path d="M2830 3910 c-13 -9 -13 -11 0 -20 15 -10 25 0 18 20 -2 6 -8 6 -18 0z"/>
<path d="M3270 3885 c0 -9 5 -15 11 -13 6 2 11 8 11 13 0 5 -5 11 -11 13 -6 2
-11 -4 -11 -13z"/>
<path d="M2760 3880 c-13 -9 -13 -11 0 -20 15 -10 25 0 18 20 -2 6 -8 6 -18 0z"/>
<path d="M3335 3860 c-4 -6 -3 -16 3 -22 6 -6 12 -6 17 2 4 6 3 16 -3 22 -6 6
-12 6 -17 -2z"/>
<path d="M2691 3837 c-9 -12 -8 -16 3 -20 19 -7 27 4 17 21 -6 10 -10 10 -20
-1z"/>
<path d="M3400 3810 c0 -13 5 -18 15 -14 12 5 13 10 4 20 -15 19 -19 18 -19
-6z"/>
<path d="M2631 3791 c-11 -7 -9 -11 8 -20 21 -12 27 -6 13 16 -5 7 -13 9 -21
4z"/>
<path d="M2970 3780 c-114 -20 -229 -90 -293 -177 -20 -27 -47 -83 -61 -125
-89 -266 72 -538 349 -589 64 -12 164 -5 206 14 23 10 25 16 18 35 -8 21 -13
22 -46 15 -21 -4 -74 -8 -118 -7 -69 0 -90 5 -145 31 -95 45 -143 92 -187 181
-36 73 -38 80 -38 176 0 90 3 108 29 164 38 82 132 171 213 202 82 32 206 32
286 1 82 -32 175 -121 212 -203 33 -74 44 -182 26 -254 -13 -50 -6 -64 30 -64
40 0 52 185 19 292 -63 203 -294 346 -500 308z"/>
<path d="M3456 3764 c-8 -22 -1 -28 19 -17 14 8 14 11 2 22 -12 9 -16 8 -21
-5z"/>
<path d="M2577 3736 c-3 -8 2 -16 12 -19 14 -3 17 0 14 14 -6 22 -19 25 -26 5z"/>
<path d="M3506 3705 c-4 -10 1 -15 16 -15 17 0 18 2 8 15 -7 8 -14 15 -15 15
-2 0 -5 -7 -9 -15z"/>
<path d="M2535 3680 c-8 -13 -1 -24 14 -19 6 3 7 10 2 18 -6 10 -10 10 -16 1z"/>
<path d="M3545 3640 c-3 -5 1 -10 9 -10 9 0 16 5 16 10 0 6 -4 10 -9 10 -6 0
-13 -4 -16 -10z"/>
<path d="M2954 3620 c-139 -43 -234 -200 -206 -339 11 -51 59 -148 68 -138 3
3 -6 21 -20 41 -31 46 -49 127 -40 185 21 144 145 251 290 251 102 0 217 -79
259 -176 19 -43 25 -142 12 -189 -7 -24 -6 -28 5 -17 22 21 17 159 -8 213 -50
108 -141 170 -259 175 -38 2 -84 -1 -101 -6z"/>
<path d="M2487 3605 c-5 -10 0 -15 14 -15 12 0 19 5 17 12 -6 18 -25 20 -31 3z"/>
<path d="M3580 3575 c-10 -13 -9 -15 9 -15 11 0 21 4 21 9 0 18 -18 21 -30 6z"/>
<path d="M2460 3536 c0 -9 7 -16 16 -16 9 0 14 5 12 12 -6 18 -28 21 -28 4z"/>
<path d="M3612 3507 c-10 -12 -9 -16 4 -21 21 -8 23 -6 15 17 -6 17 -9 17 -19
4z"/>
<path d="M2440 3466 c0 -9 7 -16 16 -16 9 0 14 5 12 12 -6 18 -28 21 -28 4z"/>
<path d="M3627 3434 c-8 -8 1 -24 14 -24 5 0 9 7 9 15 0 15 -12 20 -23 9z"/>
<path d="M2430 3385 c0 -9 6 -12 15 -9 8 4 12 10 9 15 -8 14 -24 10 -24 -6z"/>
<path d="M3626 3351 c-3 -5 1 -11 9 -15 9 -3 15 0 15 9 0 16 -16 20 -24 6z"/>
<path d="M2430 3315 c0 -16 16 -20 24 -6 3 5 -1 11 -9 15 -9 3 -15 0 -15 -9z"/>
<path d="M3631 3281 c-10 -6 -10 -10 -1 -16 13 -8 24 -1 19 14 -3 6 -10 7 -18
2z"/>
<path d="M2432 3239 c2 -6 8 -10 13 -10 5 0 11 4 13 10 2 6 -4 11 -13 11 -9 0
-15 -5 -13 -11z"/>
<path d="M3610 3201 c0 -5 7 -11 15 -15 9 -3 15 0 15 9 0 8 -7 15 -15 15 -8 0
-15 -4 -15 -9z"/>
<path d="M2450 3158 c0 -17 2 -18 15 -8 8 7 15 14 15 15 0 2 -7 5 -15 9 -10 4
-15 -1 -15 -16z"/>
<path d="M3590 3130 c0 -5 7 -10 15 -10 8 0 15 5 15 10 0 6 -7 10 -15 10 -8 0
-15 -4 -15 -10z"/>
<path d="M2855 3104 c52 -44 110 -64 188 -64 40 0 78 4 86 9 8 5 -12 7 -52 4
-87 -7 -122 1 -193 42 -47 28 -53 30 -29 9z"/>
<path d="M2476 3085 c4 -8 10 -12 15 -9 14 8 10 24 -6 24 -9 0 -12 -6 -9 -15z"/>
<path d="M3440 3018 c-24 -36 -52 -63 -87 -83 -54 -31 -75 -57 -25 -31 46 24
106 81 130 125 32 57 23 51 -18 -11z"/>
<path d="M2510 3024 c0 -17 22 -14 28 4 2 7 -3 12 -12 12 -9 0 -16 -7 -16 -16z"/>
<path d="M3547 2991 c-23 -51 -107 -136 -160 -162 -23 -12 -43 -23 -45 -24 -1
-1 2 -14 7 -28 l10 -26 42 17 c90 36 247 228 207 253 -26 17 -43 8 -61 -30z"/>
<path d="M3625 2942 c-38 -73 -113 -149 -192 -193 l-61 -34 13 -30 c7 -17 22
-39 34 -49 l21 -19 0 36 c0 21 3 37 6 37 3 0 20 -10 36 -22 l31 -21 -7 38 c-8
40 -5 41 46 20 15 -6 16 -2 11 29 l-6 36 36 -15 37 -15 -10 26 c-16 40 -12 47
21 42 32 -5 33 -1 13 46 -7 17 -4 19 30 13 l37 -6 -21 35 -22 34 36 0 c36 0
36 0 21 23 -14 21 -54 47 -73 47 -4 0 -20 -26 -37 -58z"/>
<path d="M2563 2972 c-7 -4 -9 -13 -4 -21 6 -10 10 -9 15 5 8 20 4 25 -11 16z"/>
<path d="M3805 2918 c-16 -52 -100 -171 -161 -226 -35 -33 -97 -77 -137 -97
-39 -21 -73 -39 -75 -40 -3 -3 25 -69 34 -77 4 -4 43 11 87 34 107 56 226 169
289 274 66 112 67 120 22 139 -48 20 -51 19 -59 -7z"/>
<path d="M2605 2911 c-6 -11 9 -23 19 -14 9 9 7 23 -3 23 -6 0 -12 -4 -16 -9z"/>
<path d="M3722 2899 c2 -6 8 -10 13 -10 5 0 11 4 13 10 2 6 -4 11 -13 11 -9 0
-15 -5 -13 -11z"/>
<path d="M2665 2861 c-3 -5 -1 -12 5 -16 5 -3 10 1 10 9 0 18 -6 21 -15 7z"/>
<path d="M3685 2830 c3 -5 10 -10 16 -10 5 0 9 5 9 10 0 6 -7 10 -16 10 -8 0
-12 -4 -9 -10z"/>
<path d="M2727 2824 c-8 -8 1 -24 14 -24 5 0 9 7 9 15 0 15 -12 20 -23 9z"/>
<path d="M2794 2789 c-3 -6 -1 -16 5 -22 8 -8 11 -5 11 11 0 24 -5 28 -16 11z"/>
<path d="M3637 2770 c4 -16 8 -18 19 -9 16 13 10 29 -11 29 -8 0 -11 -7 -8
-20z"/>
<path d="M3230 2765 c0 -8 5 -15 10 -15 6 0 10 7 10 15 0 8 -4 15 -10 15 -5 0
-10 -7 -10 -15z"/>
<path d="M2865 2760 c-8 -13 -1 -24 14 -19 6 3 7 10 2 18 -6 10 -10 10 -16 1z"/>
<path d="M3160 2745 c0 -9 5 -15 11 -13 6 2 11 8 11 13 0 5 -5 11 -11 13 -6 2
-11 -4 -11 -13z"/>
<path d="M2936 2741 c-3 -5 1 -11 9 -15 8 -3 15 -1 15 4 0 13 -18 22 -24 11z"/>
<path d="M3015 2740 c-8 -13 -1 -24 14 -19 6 3 7 10 2 18 -6 10 -10 10 -16 1z"/>
<path d="M3086 2735 c-3 -9 0 -15 9 -15 16 0 20 16 6 24 -5 3 -11 -1 -15 -9z"/>
<path d="M3580 2732 c0 -4 4 -13 9 -20 6 -10 10 -10 20 1 9 12 7 16 -9 20 -11
3 -20 2 -20 -1z"/>
<path d="M3530 2675 c0 -9 6 -12 15 -9 8 4 15 7 15 9 0 2 -7 5 -15 9 -9 3 -15
0 -15 -9z"/>
<path d="M3460 2635 c0 -9 5 -15 11 -13 6 2 11 8 11 13 0 5 -5 11 -11 13 -6 2
-11 -4 -11 -13z"/>
<path d="M2530 2310 c-425 -19 -811 -45 -1165 -80 -187 -19 -693 -78 -706 -83
-3 -1 1 -47 8 -102 7 -55 14 -120 15 -145 l3 -45 -115 -17 c-63 -9 -153 -22
-198 -28 -46 -7 -80 -16 -75 -20 4 -4 44 -27 88 -50 157 -83 175 -93 175 -99
0 -3 -48 -55 -105 -115 -58 -60 -104 -110 -102 -112 2 -2 41 3 88 11 46 8 174
26 284 40 110 15 201 27 202 29 2 1 -6 67 -16 145 -12 100 -14 144 -7 147 39
13 695 76 1021 99 477 32 584 36 1110 42 826 9 1479 -23 2300 -113 132 -15
241 -28 243 -29 2 -1 -4 -56 -12 -121 -9 -65 -16 -130 -16 -145 l0 -26 133
-17 c126 -17 358 -51 422 -62 26 -5 16 8 -83 108 -88 89 -110 117 -100 125 7
6 72 42 143 79 77 41 123 70 112 72 -9 2 -104 16 -210 31 -190 28 -192 28
-190 52 1 13 9 77 18 143 9 65 14 120 12 122 -5 6 -457 60 -687 83 -268 27
-542 48 -875 67 -313 18 -1411 27 -1715 14z m511 -130 c36 -20 13 -58 -26 -44
-32 12 -13 -6 20 -20 29 -12 35 -20 35 -45 0 -34 -22 -51 -68 -51 -37 0 -74
36 -52 50 20 13 37 12 45 0 7 -12 25 -13 25 -2 0 5 -15 15 -32 23 -25 10 -34
21 -36 44 -6 46 42 70 89 45z m411 0 c63 -18 80 -89 33 -136 -21 -21 -33 -25
-73 -22 l-47 3 -3 74 c-4 94 7 104 90 81z m-647 -26 c52 -56 16 -134 -64 -137
-35 -1 -47 3 -62 22 -27 33 -25 94 3 121 33 30 92 27 123 -6z m940 6 c0 -10
-12 -16 -32 -18 -41 -4 -43 -22 -3 -22 23 0 30 -4 30 -20 0 -16 -7 -20 -30
-20 -16 0 -30 -4 -30 -10 0 -5 14 -10 30 -10 23 0 30 -4 30 -20 0 -17 -7 -20
-49 -20 -28 0 -52 3 -54 8 -2 4 -2 40 1 80 l4 73 52 -3 c37 -2 51 -7 51 -18z
m170 -45 c0 -58 1 -60 28 -63 19 -2 27 -9 27 -23 0 -16 -7 -19 -50 -19 l-50 0
0 78 c0 82 4 95 30 90 11 -3 15 -17 15 -63z m-1365 35 c0 -13 -7 -20 -20 -20
-18 0 -20 -7 -20 -60 0 -53 -2 -60 -20 -60 -16 0 -20 9 -26 60 -5 50 -10 60
-25 60 -12 0 -19 7 -19 20 0 18 7 20 65 20 58 0 65 -2 65 -20z m-320 -22 l29
-33 1 33 c0 25 4 32 20 32 13 0 20 -7 20 -19 0 -10 3 -46 6 -80 6 -57 6 -61
-14 -61 -11 0 -32 15 -46 33 l-26 32 0 -37 c0 -31 -4 -38 -19 -38 -25 0 -31
19 -31 101 0 81 13 88 60 37z m2164 11 c35 -27 24 -40 -31 -37 -34 2 -48 -1
-57 -14 -19 -31 4 -54 52 -50 22 2 43 -2 47 -8 11 -18 -26 -39 -67 -40 -63 0
-103 61 -76 116 25 53 87 68 132 33z m-2354 -14 c0 -21 -5 -25 -32 -26 l-33
-1 30 -7 c40 -8 45 -38 8 -48 l-28 -7 30 -6 c20 -3 31 -12 33 -26 3 -18 -3
-21 -53 -23 l-55 -2 0 58 c0 32 -3 68 -6 80 -6 23 7 29 74 32 28 1 32 -2 32
-24z m2612 -55 c10 -36 18 -73 18 -82 0 -22 -38 -24 -46 -3 -7 17 -54 21 -54
5 0 -5 -13 -10 -29 -10 l-30 0 26 58 c14 31 29 67 34 80 7 18 15 23 36 20 23
-3 28 -11 45 -68z m-2848 23 c3 -21 6 -57 6 -80 0 -36 -3 -43 -19 -43 -14 0
-22 10 -26 32 -7 28 -8 29 -18 12 -15 -29 -15 -29 -37 -9 -20 18 -20 17 -20
-13 0 -25 -4 -32 -19 -32 -11 0 -22 8 -25 18 -5 15 -9 99 -7 130 2 21 36 13
61 -13 l24 -25 19 30 c27 43 53 40 61 -7z m3062 -5 l17 -32 23 27 c13 15 32
27 44 27 17 0 20 -6 20 -42 0 -78 -11 -118 -31 -118 -15 0 -19 7 -19 32 0 31
0 31 -21 12 -20 -18 -21 -18 -40 6 l-19 25 0 -33 c0 -29 -3 -33 -22 -30 -13 2
-22 8 -21 14 1 6 3 41 4 77 2 63 4 67 25 67 16 0 29 -10 40 -32z m-3362 -20
c14 -106 12 -123 -11 -126 -20 -3 -22 2 -28 74 -6 60 -5 78 6 85 23 15 28 11
33 -33z m3707 1 c13 -21 11 -65 -3 -77 -7 -5 -24 -12 -38 -14 -17 -2 -26 -10
-28 -25 -3 -17 -10 -23 -29 -23 l-25 0 7 78 c4 42 9 80 11 83 6 11 96 -8 105
-22z m-3927 -20 c3 -17 6 -42 6 -55 0 -20 5 -24 30 -24 23 0 30 -5 30 -19 0
-16 -9 -21 -45 -27 -25 -3 -48 -5 -50 -2 -2 2 -7 38 -11 81 -6 73 -6 77 13 77
15 0 22 -9 27 -31z m-185 -57 c17 -38 31 -74 31 -80 0 -15 -36 -16 -45 -2 -10
16 -53 12 -63 -6 -5 -9 -18 -14 -29 -12 -20 3 -20 3 -1 86 19 78 21 82 47 82
25 0 32 -8 60 -68z m4386 43 c67 -66 -20 -174 -105 -130 -52 27 -58 106 -12
141 29 23 90 17 117 -11z"/>
<path d="M3410 2106 c0 -29 4 -36 19 -36 10 0 24 7 32 16 16 20 1 48 -30 52
-18 3 -21 -1 -21 -32z"/>
<path d="M2710 2125 c-26 -32 13 -81 48 -59 34 22 22 74 -18 74 -10 0 -23 -7
-30 -15z"/>
<path d="M4590 2050 c0 -5 5 -10 10 -10 6 0 10 5 10 10 0 6 -4 10 -10 10 -5 0
-10 -4 -10 -10z"/>
<path d="M5150 2036 c0 -9 7 -16 16 -16 17 0 14 22 -4 28 -7 2 -12 -3 -12 -12z"/>
<path d="M1041 1974 c0 -11 3 -14 6 -6 3 7 2 16 -1 19 -3 4 -6 -2 -5 -13z"/>
<path d="M5390 2005 c-26 -32 13 -81 48 -59 34 22 22 74 -18 74 -10 0 -23 -7
-30 -15z"/>
</g>
</svg>
